<mxfile host="app.diagrams.net" modified="2024-05-20T19:24:49.416Z" agent="Mozilla/5.0 (Windows NT 10.0; Win64; x64) AppleWebKit/537.36 (KHTML, like Gecko) Chrome/125.0.0.0 Safari/537.36" version="24.4.4" etag="4VmdFqA0hYKjJIBYG7BV" type="github">
  <diagram name="Page-1" id="rVulv5fWfBGwRf19x5o2">
    <mxGraphModel>
      <root>
        <mxCell id="0" />
        <mxCell id="1" parent="0" />
      </root>
    </mxGraphModel>
  </diagram>
</mxfile>
